<?xml version="1.0" standalone="no"?>
<!DOCTYPE svg PUBLIC "-//W3C//DTD SVG 20010904//EN"
 "http://www.w3.org/TR/2001/REC-SVG-20010904/DTD/svg10.dtd">
<svg version="1.0" xmlns="http://www.w3.org/2000/svg"
 width="700.000000pt" height="700.000000pt" viewBox="0 0 700.000000 700.000000"
 preserveAspectRatio="xMidYMid meet">
<metadata>
Created by potrace 1.11, written by Peter Selinger 2001-2013
</metadata>
<g transform="translate(0.000000,700.000000) scale(0.100000,-0.100000)"
fill="#000000" stroke="none">
<path d="M2 6426 l3 -189 513 1 512 1 0 -2739 0 -2740 -515 0 -515 0 2 -187 3
-188 1237 0 c818 0 1239 3 1241 10 2 5 3 89 2 185 l0 175 -516 5 -515 5 0 688
0 689 170 168 c94 92 208 203 253 247 66 63 585 571 871 851 l65 64 22 -24
c12 -12 105 -117 206 -233 206 -236 398 -454 414 -471 5 -6 28 -33 50 -59 22
-27 47 -56 56 -64 9 -9 38 -41 64 -71 26 -30 74 -84 105 -120 50 -57 109 -125
359 -409 31 -36 61 -69 66 -75 6 -6 37 -42 70 -81 33 -38 63 -72 66 -75 3 -3
59 -66 124 -140 182 -208 229 -262 240 -274 13 -15 157 -178 170 -193 6 -6 33
-37 61 -70 28 -32 73 -83 99 -113 27 -30 78 -88 114 -129 36 -40 72 -82 79
-92 13 -19 2 -19 -527 -19 l-541 0 0 -185 c0 -102 3 -186 8 -186 4 -1 654 -2
1445 -3 l1437 -1 0 187 0 188 -632 1 -633 0 -77 92 c-43 51 -88 103 -100 117
-13 14 -50 56 -83 95 -33 38 -64 75 -70 81 -5 6 -32 37 -60 69 -27 32 -55 63
-60 69 -6 6 -69 79 -140 161 -71 83 -188 218 -260 300 -72 83 -186 215 -255
295 -68 80 -127 147 -130 150 -3 3 -62 70 -130 150 -69 80 -156 181 -195 225
-38 44 -95 109 -125 144 -30 36 -60 69 -65 75 -6 6 -53 61 -105 121 -51 61
-101 117 -109 126 -9 9 -25 27 -36 40 -29 34 -198 232 -210 245 -22 24 -129
147 -260 299 l-137 159 219 216 c189 185 480 470 1026 1004 357 349 862 843
1056 1033 l216 212 433 1 432 0 1 48 c0 52 0 288 -1 312 0 13 -150 15 -1290
15 l-1290 0 -1 -25 c-2 -86 1 -344 5 -347 3 -3 272 -5 598 -5 l593 1 -95 -91
c-52 -49 -203 -195 -335 -323 -132 -128 -258 -250 -281 -271 -23 -22 -150
-145 -284 -274 -133 -129 -270 -261 -304 -294 -55 -52 -432 -417 -591 -571
-269 -261 -539 -521 -585 -565 -30 -29 -167 -162 -304 -294 -137 -133 -266
-257 -286 -276 -91 -87 -507 -490 -551 -533 -27 -27 -50 -45 -51 -40 0 4 -2
800 -3 1768 l-1 1760 515 5 515 5 1 173 c0 96 -3 179 -7 185 -5 9 -320 12
-1243 12 l-1235 0 2 -189z"/>
</g>
</svg>
