<svg id="Layer_1" data-name="Layer 1" xmlns="http://www.w3.org/2000/svg" width="640" height="640" viewBox="0 0 640 640"><defs><style>.cls-1{fill:none;}</style></defs><title>cat_icon</title><path class="cls-1" d="M380.44,246.08a23.41,23.41,0,1,0,23.79,23.41A23.6,23.6,0,0,0,380.44,246.08Zm198.62,280c-13.19-24.42-28.13-52.09-28.13-95.54,0-72.67,41-98.24,42.64-99.25A12.43,12.43,0,0,0,598,314.13a12.88,12.88,0,0,0-17.48-4.4c-2.25,1.31-55.14,33.13-55.14,120.83,0,49.7,17.25,81.65,31.11,107.32,9.93,18.38,17.78,32.91,17.78,49.52,0,11.9-2.63,20.5-7.61,24.89s-11.68,3.8-11.8,3.8a12.77,12.77,0,0,0-1.85-.13H506.1a53.13,53.13,0,0,0,8.68-29.07V21.22a12.58,12.58,0,0,0-9.34-12.09,12.83,12.83,0,0,0-14.34,5.6L428.83,116.17c-19.12-.36-75.27-0.79-243.39-0.79-35.7,0-53.37,0-62.29.09L65.77,6.77A12.83,12.83,0,0,0,51.43.36,12.6,12.6,0,0,0,41.7,12.55V586.86c0,29.86,24.69,54.16,55,54.16H552.35c0.83,0.07,2,.15,3.5.15a42.27,42.27,0,0,0,27.33-9.75c11-9.38,16.62-24.19,16.62-44C599.81,564.54,589.73,545.87,579.05,526.1ZM176,324.4c-30.77,0-55.8-24.63-55.8-54.91s25-54.9,55.8-54.9,55.81,24.63,55.81,54.9S206.8,324.4,176,324.4ZM308.35,388H295.64l-1.39,23.52a17.09,17.09,0,0,1-17.16,15.94l-1,0a17,17,0,0,1-16.17-17.87L261.18,388H248.13a16.93,16.93,0,1,1,0-33.86h60.22A16.93,16.93,0,1,1,308.35,388Zm72.09-63.61c-30.77,0-55.81-24.63-55.81-54.91s25-54.9,55.81-54.9,55.83,24.63,55.83,54.9S411.22,324.4,380.44,324.4ZM176,246.08a23.41,23.41,0,1,0,23.8,23.41A23.6,23.6,0,0,0,176,246.08Z"/></svg>