<svg id="Layer_1" data-name="Layer 1" xmlns="http://www.w3.org/2000/svg" width="640" height="640" viewBox="0 0 640 640"><defs><style>.cls-1{fill:none;}</style></defs><title>contact_icon</title><path class="cls-1" d="M526.72,187.86L320,369.2,113.35,187.85a19.92,19.92,0,0,0-28,1.77,19.7,19.7,0,0,0,1.77,27.9L306.93,410.37a19.9,19.9,0,0,0,26.25,0L553,217.52a19.71,19.71,0,0,0,1.77-27.9,19.92,19.92,0,0,0-28-1.75h0Zm0,0"/><path class="cls-1" d="M579.55,103.84h-519A59.5,59.5,0,0,0,.94,163.15V476.85a59.5,59.5,0,0,0,59.57,59.31h519a59.51,59.51,0,0,0,59.57-59.31V163.15a59.51,59.51,0,0,0-59.57-59.31h0Zm19.86,373a19.85,19.85,0,0,1-19.86,19.77h-519a19.84,19.84,0,0,1-19.86-19.77V163.15a19.83,19.83,0,0,1,19.86-19.77h519a19.84,19.84,0,0,1,19.86,19.77V476.85Zm0,0"/></svg>