<svg id="Layer_1" data-name="Layer 1" xmlns="http://www.w3.org/2000/svg" width="640" height="640" viewBox="0 0 640 640"><defs><style>.cls-1{fill:none;}</style></defs><title>dog_icon</title><path class="cls-1" d="M602.77,434.08c-16-75.89-42.69-114.08-87.31-135.89C389.16,245.07,367.27,62.12,366.33,53.49c0.22,1.93,44,174.76,157.89,224,11.44-9.81,27.93-34.66,33.93-97.57C567.65,79.71,575.7,10.59,381,7.36c0,0-68.58-12-120.77-5.39C175.35,55,150.37,127.66,144,153.68L143,204,40.15,248.54s-22.81,29.71-15.2,61.23c7.33,30.43,13.14,76.37,90.69,82.84v-84c-16.09-2.87-27.84-11.53-27.84-21.85,0-12.68,17.58-23,39.27-23s39.29,10.28,39.29,23c0,10.33-11.79,19-27.85,21.85v85.13c75.57,2.69,113.07-.52,113.07-0.52L166.4,640H616.64S617.49,503.88,602.77,434.08ZM201.33,212.31c-13,0-23.46-18.7-23.46-41.71s10.5-41.68,23.46-41.68,23.42,18.66,23.42,41.68S214.27,212.31,201.33,212.31Zm60.78-41.73c0-23.12,10.54-41.87,23.53-41.87s23.51,18.75,23.51,41.87-10.54,41.85-23.51,41.85S262.11,193.67,262.11,170.57Z"/></svg>