<svg id="Layer_1" data-name="Layer 1" xmlns="http://www.w3.org/2000/svg" width="640" height="640" viewBox="0 0 640 640"><defs><style>.cls-1{fill:none;}</style></defs><title>faq_icon</title><path class="cls-1" d="M277.58,341.86h32.85c95.83,0,163.38-67.47,163.38-153.15,0-83.89-65.73-152.26-158.81-152.26-69.37,0-132.35,44.69-146.95,112.17h-42C142.52,58.35,219.18,0,313.18,0,430,0,513.94,82.92,513.94,188.71c0,103-77.54,182.32-194.36,184.18l-0.93,95.69H282.16Zm-10,265.33c0-18.19,14.6-32.81,33.74-32.81,18.28,0,33.77,14.62,33.77,32.81,0,19.15-15.49,32.81-33.77,32.81C282.16,640,267.55,626.34,267.55,607.19Z"/></svg>