<svg id="Layer_1" data-name="Layer 1" xmlns="http://www.w3.org/2000/svg" width="640" height="640" viewBox="0 0 640 640"><defs><style>.cls-1{fill:none;}</style></defs><title>fish_icon</title><path class="cls-1" d="M639.64,411.89c-17.53-67-11.89-127.62-5.33-163.27,3.42-18.55-7.64-34.24-26.33-30.52-37.08,7.38-67.22,28-86.65,44.74-14.35,12.41-33,11.49-38.28-6.63C461.87,183,497.33,76.66,497.33,76.66c39.29-98.14-102.73-74-102.73-74C132.17,50.08,55.16,184.65,33.22,247.44,27,265.24,13,290.93,3.85,307.42c-0.71,1.28-1.37,2.52-2,3.77C-6.45,328.1,7.7,355.67,18,371.5c12.8,19.6,17.67,33,17.67,33,68.75,212.45,379.77,234,379.77,234,53.89,6.8,74.5-10.83,82-29.07,7.09-17.48-5.23-46.82-11.53-64.6C465.12,486,475.5,426.36,485.71,391c5.25-18.11,21.69-20.68,35.48-7.66,40.13,38,72.41,53.21,94.6,59C634.2,447.11,644.41,430.11,639.64,411.89ZM117,399.11c-34.06,0-61.66-27.31-61.66-60.93S83,277.26,117,277.26s61.66,27.3,61.66,60.92S151.06,399.11,117,399.11ZM114.5,293.6A23.41,23.41,0,1,0,138.19,317,23.55,23.55,0,0,0,114.5,293.6Z"/></svg>