<svg id="Layer_1" data-name="Layer 1" xmlns="http://www.w3.org/2000/svg" width="180" height="22" viewBox="0 0 180 22"><defs><style>.cls-1{fill:#a2a2a2;}</style></defs><title>logo-sm</title><path class="cls-1" d="M10.61,10.07l8.55-8.36h2.93V0.43H13.32V1.71h4.06l-12.45,12v-12H8.42V0.43H0V1.71H3.49V20.29H0v1.27H8.42V20.29H4.93V15.6l4.62-4.51,8.08,9.2H13.95v1.27h9.8V20.29H19.47ZM35.38,0a11,11,0,1,0,11,11A11,11,0,0,0,35.38,0Zm0,20.63A9.63,9.63,0,1,1,45,11,9.58,9.58,0,0,1,35.38,20.63ZM74.09,1.71h4L72,19.58,65.57,0.43H64.3L57.87,19.61,51.78,1.71h4V0.43H47.17V1.71h3.09l6.93,20h1.4L64.92,3l6.33,18.77h1.44v0l6.89-20H82.7V0.43H74.09V1.71Zm26.33,18.55H89.19V1.71h5V0.43H84.29V1.71h3.46V20.29H84.29v1.27h17.56V15.91h-1.43v4.35ZM116.14,0a11,11,0,1,0,11,11A11,11,0,0,0,116.14,0Zm0,20.63A9.63,9.63,0,1,1,125.72,11,9.58,9.58,0,0,1,116.14,20.63ZM141.78,0a11,11,0,1,0,11,11A11,11,0,0,0,141.78,0Zm0,20.63A9.63,9.63,0,1,1,151.36,11,9.58,9.58,0,0,1,141.78,20.63Zm29.82-20.2V1.71h3.46V19.3L160.19,0.43h-4.74V1.71h3.46V20.29h-3.46v1.27h8.39V20.29h-3.49V2.83l14.79,18.74h1.37V1.71H180V0.43h-8.39Z"/></svg>