<svg id="Layer_1" data-name="Layer 1" xmlns="http://www.w3.org/2000/svg" width="288" height="89" viewBox="0 0 288 89"><defs><style>.cls-1{fill:#fff;}</style></defs><title>logo</title><path class="cls-1" d="M13.48,42.81H7.89V35.33l7.39-7.19L28.2,42.81H22.31v2H38v-2H31.15L17,26.51,30.65,13.18h4.69v-2h-14v2H27.8L7.89,32.36V13.18h5.59v-2H0v2H5.59V42.81H0v2H13.48v-2ZM74.27,28A17.67,17.67,0,1,0,56.6,45.54,17.58,17.58,0,0,0,74.27,28Zm-33,0A15.32,15.32,0,1,1,56.6,43.36,15.3,15.3,0,0,1,41.28,28Zm48-16.85H75.47v2h4.94L91.49,45.09h2.25l10.13-29.93L114,45.09h2.3v0l11-31.86h5v-2H118.55v2h6.34l-9.73,28.49L104.92,11.15h-2L92.59,41.72,82.86,13.18h6.39v-2Zm45.62,31.67v2H163v-9h-2.3v6.94h-18V13.18h8v-2H134.86v2h5.54V42.81h-5.54ZM203.5,28a17.67,17.67,0,1,0-17.67,17.54A17.58,17.58,0,0,0,203.5,28Zm-33,0a15.32,15.32,0,1,1,15.32,15.36A15.3,15.3,0,0,1,170.5,28Zm74,0a17.67,17.67,0,1,0-17.67,17.54A17.58,17.58,0,0,0,244.53,28Zm-33,0a15.32,15.32,0,1,1,15.32,15.36A15.3,15.3,0,0,1,211.53,28Zm63-14.82h5.54v28L256.3,11.15h-7.59v2h5.54V42.81h-5.54v2h13.43v-2h-5.59V15l23.66,29.88h2.2V13.18H288v-2H274.57v2ZM0,0V2H288V0H0ZM0,56H140.44V61.6a4.25,4.25,0,0,0-3.15,3.51,10.3,10.3,0,0,0-1.42-.11h0c-3.64,0-8.18,2.15-9,8.2-1.39,10,13.34,15.46,14,15.68L141.13,89h0.35c0.92,0,7.91-2.93,11.74-7.29a10.45,10.45,0,0,0,2.92-8.52c-0.84-6.05-5.39-8.2-9-8.2a10.32,10.32,0,0,0-1.43.11,4.25,4.25,0,0,0-3.15-3.51V56H288V54H0v2ZM147.11,67c3.1,0,6.4,1.79,7.06,6.49C155.36,82,141.49,87,141.49,87h0S127.62,82,128.8,73.47c0.66-4.71,4-6.49,7.06-6.49,2.5,0,4.88,1.16,5.63,2.9h0C142.23,68.14,144.61,67,147.11,67Zm-3-1.51a8.29,8.29,0,0,0-2.6,1.34,8.29,8.29,0,0,0-2.6-1.33A2.61,2.61,0,0,1,144.09,65.46Z" transform="translate(0 0)"/></svg>