<svg id="Icon" xmlns="http://www.w3.org/2000/svg" width="640" height="640" viewBox="0 0 640 640"><defs><style>.cls-1{fill:none;}</style></defs><title>menu_icon</title><path class="cls-1" d="M578,65H61C26.92,65-1,89.29-1,119s27.92,54,62,54H578c34.11,0,62-24.29,62-54S612.08,65,578,65Z"/><path class="cls-1" d="M578,262.86H61c-34.11,0-62,24.29-62,54s27.92,54,62,54H578c34.11,0,62-24.29,62-54S612.08,262.86,578,262.86Z"/><path class="cls-1" d="M578,460.72H61c-34.11,0-62,24.28-62,54s27.92,54,62,54H578c34.11,0,62-24.29,62-54S612.08,460.72,578,460.72Z"/></svg>