<svg id="Layer_1" data-name="Layer 1" xmlns="http://www.w3.org/2000/svg" width="640" height="640" viewBox="0 0 640 640"><defs><style>.cls-1{fill:none;}</style></defs><title>mouse_icon</title><path class="cls-1" d="M551.58,524.76V382.88c20.78,0,37.63-17.35,37.63-38.74s-16.85-38.74-37.63-38.74V211.72a86.85,86.85,0,0,0,46.54-77.43c0-47.85-37.68-86.65-84.17-86.65s-84.17,38.8-84.17,86.65H263.25a123.4,123.4,0,0,0,.88-14.06C264.13,54.35,212.26.94,148.26,0.94S32.4,54.35,32.4,120.23c0,52.3,32.74,96.63,78.24,112.73v72.44C89.85,305.39,73,322.74,73,344.13s16.85,38.74,37.63,38.74V524.76c-30.91,0-56,25.8-56,57.62S79.72,640,110.63,640a54.42,54.42,0,0,0,28.13-7.86,54,54,0,0,0,27.62,7.65H495.82a54,54,0,0,0,27.62-7.65A54.41,54.41,0,0,0,551.58,640c30.91,0,56-25.8,56-57.62S582.49,524.76,551.58,524.76Zm-173.64-255c19.12,0,34.61,16,34.61,35.63S397.05,341,377.93,341s-34.6-16-34.6-35.63S358.82,269.76,377.93,269.76Zm-105.4-8.1c29.54,0,53.48,24.65,53.48,55.07s-23.94,55.07-53.48,55.07-53.48-24.65-53.48-55.07S243,261.67,272.54,261.67Zm119.22,244.6-52.35,1.85-2-60.9c-2.09,0-4.16.12-6.27,0.12-1.79,0-3.54-.07-5.31-0.1l-2,60.85-52.35-1.79,2.06-63.87c-45.23-7.93-81.83-25-102.29-47.25l13-8.11c26.61,26.37,83.11,45.09,146.88,45.09S451.35,413.41,477.95,387l13,8.14c-20.3,22.11-56.54,39.09-101.33,47.09Z"/></svg>