<svg id="Layer_1" data-name="Layer 1" xmlns="http://www.w3.org/2000/svg" width="640" height="640" viewBox="0 0 640 640"><defs><style>.cls-1{fill:none;}</style></defs><title>owl_icon</title><path class="cls-1" d="M371.7,568.23c11.06-4.25,21.41-4.16,31.16,0,12.16-4.09,24.18-4.33,36.11,0,96.79-156.1,108.54-349.16-29-419.77,46.34-35.92,61.77-87.3,58.57-148-97.42,125.43-196.62,122.18-297.48,0,3.44,55.85,16.8,107.27,58.65,146-137,66.77-127.18,259.67-24.23,421.82a55.42,55.42,0,0,1,36.46,0c9.43-4.39,19.44-3.77,29.75,0,20,16.12,21.19,41,21.79,71.77h58.91C354.29,612.1,350.59,584.93,371.7,568.23ZM241.17,330.36c-38.57,0-69.83-27-69.83-60.41s31.26-60.41,69.83-60.41,69.83,27,69.83,60.41S279.74,330.36,241.17,330.36ZM318,390.46c-9.68,0-46.71-53.37-20.55-53.37h41.39C365.06,337.08,327.84,390.46,318,390.46Zm8.55-120.51c0-33.36,31.27-60.41,69.83-60.41s69.84,27,69.84,60.41-31.27,60.41-69.84,60.41S326.54,303.31,326.54,269.95ZM263.8,253.18c-16.07,0-29.09,11.27-29.09,25.17s13,25.17,29.09,25.17,29.1-11.27,29.1-25.17S279.87,253.18,263.8,253.18Zm109.94,0c-16.07,0-29.09,11.27-29.09,25.17s13,25.17,29.09,25.17,29.09-11.27,29.09-25.17S389.81,253.18,373.74,253.18ZM259.19,580.13c-7.23,0-13.57,5.21-17.16,13.07-3.59-7.86-9.94-13.07-17.17-13.07-7.49,0-14,5.6-17.54,13.91-3.52-8.32-10.05-13.91-17.55-13.91-11.21,0-20.29,12.52-20.29,28s9.08,28,20.29,28c7.49,0,14-5.6,17.55-13.92,3.51,8.32,10.05,13.92,17.54,13.92,7.23,0,13.58-5.22,17.17-13.07,3.59,7.86,9.93,13.07,17.16,13.07,11.2,0,20.29-12.52,20.29-28S270.39,580.13,259.19,580.13Zm195.49,0c-7.23,0-13.57,5.21-17.16,13.07-3.59-7.86-9.94-13.07-17.17-13.07-7.48,0-14,5.6-17.54,13.91-3.52-8.32-10.05-13.91-17.55-13.91-11.21,0-20.29,12.52-20.29,28s9.09,28,20.29,28c7.49,0,14-5.6,17.55-13.92,3.51,8.32,10.06,13.92,17.54,13.92,7.23,0,13.58-5.22,17.17-13.07,3.59,7.86,9.93,13.07,17.16,13.07,11.2,0,20.28-12.52,20.28-28S465.88,580.13,454.69,580.13Z"/></svg>