<?xml version="1.0" encoding="utf-8"?>
<!-- Generator: Adobe Illustrator 21.0.0, SVG Export Plug-In . SVG Version: 6.00 Build 0)  -->
<svg version="1.1" id="Layer_1" xmlns="http://www.w3.org/2000/svg" xmlns:xlink="http://www.w3.org/1999/xlink" x="0px" y="0px"
	 viewBox="0 0 65 52" style="enable-background:new 0 0 65 52;" xml:space="preserve">
<style type="text/css">
	.st0{fill:none;}
</style>
<g>
	<path class="st0" d="M0,0v52h65V0H0z M63.1,50H1.9V2h61.1V50z M16.1,31.8c3.7,0,6.7-3,6.7-6.8c0-3.7-3-6.8-6.7-6.8
		c-3.7,0-6.7,3-6.7,6.8C9.4,28.8,12.4,31.8,16.1,31.8z M16.1,20.1c2.7,0,4.9,2.2,4.9,4.9c0,2.7-2.2,4.9-4.9,4.9
		c-2.7,0-4.9-2.2-4.9-4.9C11.3,22.3,13.4,20.1,16.1,20.1z M57.1,8.7H33.8v2h23.4V8.7z M57.1,18.6H33.8v2h23.4V18.6z M57.1,28.5H33.8
		v2h23.4V28.5z M57.1,38.4H33.8v2h23.4V38.4z"/>
</g>
</svg>
