<svg id="Search" xmlns="http://www.w3.org/2000/svg" width="640" height="640" viewBox="0 0 640 640"><defs><style>.cls-1{fill:none;}</style></defs><title>search_icon</title><path class="cls-1" d="M381-.11C237.87-.11,121.86,115.9,121.86,259a258.47,258.47,0,0,0,57.49,162.65L8.07,592.88a27.6,27.6,0,0,0,39,39L218.38,460.65A258.19,258.19,0,0,0,381,518.14c143.12,0,259.14-116,259.14-259.12S524.08-.11,381-0.11Zm0,478.38c-120.92,0-219.27-98.35-219.27-219.26S260.08,39.76,381,39.76,600.27,138.1,600.27,259,501.91,478.27,381,478.27Z"/></svg>